<?xml version="1.0" encoding="utf-8"?>
<!-- Generator: Adobe Illustrator 16.0.0, SVG Export Plug-In . SVG Version: 6.00 Build 0)  -->
<!DOCTYPE svg PUBLIC "-//W3C//DTD SVG 1.1//EN" "http://www.w3.org/Graphics/SVG/1.1/DTD/svg11.dtd">
<svg version="1.1" id="Layer_1" xmlns="http://www.w3.org/2000/svg" xmlns:xlink="http://www.w3.org/1999/xlink" x="0px" y="0px"
	 width="507.167px" height="491.383px" viewBox="0 0 507.167 491.383" enable-background="new 0 0 507.167 491.383"
	 xml:space="preserve">
<path fill="#3F3F3F" d="M27.977,176.602c-5.527,5.527-5.527,14.489,0,20.016l264.798,264.8c5.527,5.525,14.488,5.525,20.016,0
	l166.043-166.045c5.527-5.524,5.527-14.485,0-20.016l-264.8-264.797c-5.526-5.527-14.488-5.527-20.016,0L27.977,176.602z"/>
<g>
	
		<rect x="35.151" y="83.563" transform="matrix(-0.7071 0.7071 -0.7071 -0.7071 316.6657 107.4316)" fill="#3F3F3F" width="201.865" height="71.474"/>
	<path fill="#231F20" d="M232.462,73.198L89.981,215.678l-50.276-50.277l142.479-142.48L232.462,73.198 M232.988,73.198
		l-50.804-50.804L39.178,165.401l50.804,50.804L232.988,73.198L232.988,73.198z"/>
</g>
<g>
	
		<rect x="164.713" y="101.745" transform="matrix(-0.7071 0.7071 -0.7071 -0.7071 629.4584 236.9934)" fill="#333333" width="201.867" height="294.233"/>
	<path fill="#231F20" d="M440.781,281.519L298.303,424L90.508,216.205l142.48-142.48L440.781,281.519 M441.31,281.519
		L232.988,73.198L89.981,216.205l208.322,208.321L441.31,281.519L441.31,281.519z"/>
</g>
<g>
	<path fill="#3F3F3F" d="M188.58,54.425c-0.727,0.728-0.727,1.906,0,2.634l9.746,9.744c0.726,0.728,1.905,0.728,2.633,0l4.564-4.564
		c0.728-0.729,0.728-1.907,0-2.634l-9.744-9.745c-0.727-0.728-1.906-0.728-2.633,0L188.58,54.425z"/>
	<path fill="none" stroke="#231F20" stroke-width="0.5" stroke-miterlimit="10" d="M188.58,54.425c-0.727,0.728-0.727,1.906,0,2.634
		l9.746,9.744c0.726,0.728,1.905,0.728,2.633,0l4.564-4.564c0.728-0.729,0.728-1.907,0-2.634l-9.744-9.745
		c-0.727-0.728-1.906-0.728-2.633,0L188.58,54.425z"/>
</g>
<g>
	<path fill="#3F3F3F" d="M177.666,65.34c-0.729,0.728-0.728,1.907,0,2.634l9.744,9.745c0.727,0.727,1.906,0.727,2.634,0l4.564-4.565
		c0.728-0.727,0.728-1.906,0-2.633l-9.744-9.745c-0.728-0.727-1.906-0.727-2.634,0L177.666,65.34z"/>
	<path fill="none" stroke="#231F20" stroke-width="0.5" stroke-miterlimit="10" d="M177.666,65.34c-0.729,0.728-0.728,1.907,0,2.634
		l9.744,9.745c0.727,0.727,1.906,0.727,2.634,0l4.564-4.565c0.728-0.727,0.728-1.906,0-2.633l-9.744-9.745
		c-0.728-0.727-1.906-0.727-2.634,0L177.666,65.34z"/>
</g>
<g>
	<path fill="#3F3F3F" d="M166.75,76.255c-0.727,0.727-0.727,1.907,0,2.634l9.744,9.745c0.728,0.727,1.906,0.727,2.635,0l4.564-4.565
		c0.728-0.727,0.728-1.906,0-2.634l-9.744-9.744c-0.728-0.728-1.906-0.728-2.634,0L166.75,76.255z"/>
	<path fill="none" stroke="#231F20" stroke-width="0.5" stroke-miterlimit="10" d="M166.75,76.255c-0.727,0.727-0.727,1.907,0,2.634
		l9.744,9.745c0.728,0.727,1.906,0.727,2.635,0l4.564-4.565c0.728-0.727,0.728-1.906,0-2.634l-9.744-9.744
		c-0.728-0.728-1.906-0.728-2.634,0L166.75,76.255z"/>
</g>
<g>
	<path fill="#3F3F3F" d="M155.836,87.17c-0.729,0.728-0.729,1.906,0,2.634l9.744,9.744c0.727,0.727,1.906,0.727,2.633,0l4.566-4.565
		c0.727-0.728,0.727-1.907,0-2.634l-9.746-9.744c-0.727-0.728-1.906-0.728-2.633,0L155.836,87.17z"/>
	<path fill="none" stroke="#231F20" stroke-width="0.5" stroke-miterlimit="10" d="M155.836,87.17c-0.729,0.728-0.729,1.906,0,2.634
		l9.744,9.744c0.727,0.727,1.906,0.727,2.633,0l4.566-4.565c0.727-0.728,0.727-1.907,0-2.634l-9.746-9.744
		c-0.727-0.728-1.906-0.728-2.633,0L155.836,87.17z"/>
</g>
<g>
	<path fill="#3F3F3F" d="M99.477,143.53c-0.728,0.727-0.728,1.906,0,2.633l9.744,9.745c0.727,0.727,1.906,0.727,2.633,0l4.565-4.565
		c0.728-0.727,0.728-1.906,0-2.633l-9.744-9.744c-0.728-0.728-1.906-0.728-2.634,0L99.477,143.53z"/>
	<path fill="none" stroke="#231F20" stroke-width="0.5" stroke-miterlimit="10" d="M99.477,143.53c-0.728,0.727-0.728,1.906,0,2.633
		l9.744,9.745c0.727,0.727,1.906,0.727,2.633,0l4.565-4.565c0.728-0.727,0.728-1.906,0-2.633l-9.744-9.744
		c-0.728-0.728-1.906-0.728-2.634,0L99.477,143.53z"/>
</g>
<g>
	<path fill="#3F3F3F" d="M88.824,154.182c-0.728,0.727-0.728,1.906,0,2.634l9.744,9.744c0.728,0.728,1.906,0.728,2.634,0
		l4.564-4.565c0.728-0.727,0.728-1.907,0-2.634l-9.743-9.745c-0.729-0.727-1.906-0.727-2.634,0L88.824,154.182z"/>
	<path fill="none" stroke="#231F20" stroke-width="0.5" stroke-miterlimit="10" d="M88.824,154.182
		c-0.728,0.727-0.728,1.906,0,2.634l9.744,9.744c0.728,0.728,1.906,0.728,2.634,0l4.564-4.565c0.728-0.727,0.728-1.907,0-2.634
		l-9.743-9.745c-0.729-0.727-1.906-0.727-2.634,0L88.824,154.182z"/>
</g>
<g>
	<path fill="#3F3F3F" d="M78.172,164.833c-0.727,0.727-0.727,1.906,0,2.633l9.746,9.745c0.727,0.727,1.905,0.727,2.633,0
		l4.565-4.565c0.728-0.727,0.728-1.907,0-2.633l-9.745-9.745c-0.727-0.727-1.906-0.727-2.634,0L78.172,164.833z"/>
	<path fill="none" stroke="#231F20" stroke-width="0.5" stroke-miterlimit="10" d="M78.172,164.833
		c-0.727,0.727-0.727,1.906,0,2.633l9.746,9.745c0.727,0.727,1.905,0.727,2.633,0l4.565-4.565c0.728-0.727,0.728-1.907,0-2.633
		l-9.745-9.745c-0.727-0.727-1.906-0.727-2.634,0L78.172,164.833z"/>
</g>
<g>
	<path fill="#3F3F3F" d="M67.52,175.485c-0.728,0.727-0.728,1.906,0,2.633l9.745,9.744c0.727,0.727,1.906,0.727,2.633,0l4.565-4.564
		c0.728-0.728,0.728-1.907,0-2.634l-9.744-9.744c-0.728-0.728-1.907-0.728-2.634,0L67.52,175.485z"/>
	<path fill="none" stroke="#231F20" stroke-width="0.5" stroke-miterlimit="10" d="M67.52,175.485c-0.728,0.727-0.728,1.906,0,2.633
		l9.745,9.744c0.727,0.727,1.906,0.727,2.633,0l4.565-4.564c0.728-0.728,0.728-1.907,0-2.634l-9.744-9.744
		c-0.728-0.728-1.907-0.728-2.634,0L67.52,175.485z"/>
</g>
<circle fill="#3F3F3F" stroke="#231F20" stroke-width="0.5" stroke-miterlimit="10" cx="136.083" cy="119.3" r="22.41"/>
<circle fill="#3F3F3F" stroke="#231F20" stroke-width="0.5" stroke-miterlimit="10" cx="136.084" cy="119.3" r="10.739"/>
<circle fill="#FFFFFF" cx="135.346" cy="88.056" r="0.9"/>
<g>
	<path fill="#3F3F3F" d="M182.202,65.835c-0.291,0.291-0.291,0.763,0,1.053l6.293,6.294c0.292,0.29,0.763,0.29,1.054,0l0.523-0.524
		c0.291-0.291,0.291-0.763,0-1.054l-6.293-6.293c-0.291-0.291-0.763-0.291-1.054,0L182.202,65.835z"/>
	<path fill="none" stroke="#231F20" stroke-width="0.5" stroke-miterlimit="10" d="M182.202,65.835
		c-0.291,0.291-0.291,0.763,0,1.053l6.293,6.294c0.292,0.29,0.763,0.29,1.054,0l0.523-0.524c0.291-0.291,0.291-0.763,0-1.054
		l-6.293-6.293c-0.291-0.291-0.763-0.291-1.054,0L182.202,65.835z"/>
</g>
<circle fill="#3F3F3F" stroke="#231F20" stroke-width="0.5" stroke-miterlimit="10" cx="175.222" cy="80.161" r="1.136"/>
<circle fill="#3F3F3F" stroke="#231F20" stroke-width="0.5" stroke-miterlimit="10" cx="97.296" cy="158.088" r="1.136"/>
<g>
	<path fill="#3F3F3F" d="M82.709,165.328c-0.291,0.291-0.291,0.762,0,1.053l6.293,6.293c0.291,0.291,0.763,0.291,1.054,0
		l0.523-0.523c0.291-0.292,0.291-0.763,0-1.054l-6.293-6.294c-0.291-0.291-0.763-0.291-1.054,0L82.709,165.328z"/>
	<path fill="none" stroke="#231F20" stroke-width="0.5" stroke-miterlimit="10" d="M82.709,165.328
		c-0.291,0.291-0.291,0.762,0,1.053l6.293,6.293c0.291,0.291,0.763,0.291,1.054,0l0.523-0.523c0.291-0.292,0.291-0.763,0-1.054
		l-6.293-6.294c-0.291-0.291-0.763-0.291-1.054,0L82.709,165.328z"/>
</g>
</svg>
