<?xml version="1.0" encoding="utf-8"?>
<!-- Generator: Adobe Illustrator 16.0.0, SVG Export Plug-In . SVG Version: 6.00 Build 0)  -->
<!DOCTYPE svg PUBLIC "-//W3C//DTD SVG 1.1//EN" "http://www.w3.org/Graphics/SVG/1.1/DTD/svg11.dtd">
<svg version="1.1" id="Layer_1" xmlns="http://www.w3.org/2000/svg" xmlns:xlink="http://www.w3.org/1999/xlink" x="0px" y="0px"
	 width="465.5px" height="465.5px" viewBox="0 0 465.5 465.5" enable-background="new 0 0 465.5 465.5" xml:space="preserve">
<g>
	<path fill="#FFFFFF" d="M264.523,434.539c4.925,4.925,12.908,4.925,17.832,0L447.19,269.705c4.924-4.924,4.926-12.907,0-17.833
		L200.975,5.657c-4.924-4.924-12.909-4.924-17.833,0L18.309,170.491c-4.925,4.924-4.925,12.908,0,17.833L264.523,434.539z"/>
	<path fill="none" stroke="#C3C3C3" stroke-width="2" stroke-miterlimit="10" d="M264.523,434.539
		c4.925,4.925,12.908,4.925,17.832,0L447.19,269.705c4.924-4.924,4.926-12.907,0-17.833L200.975,5.657
		c-4.924-4.924-12.909-4.924-17.833,0L18.309,170.491c-4.925,4.924-4.925,12.908,0,17.833L264.523,434.539z"/>
</g>
<circle cx="115.62" cy="102.136" r="2.123"/>
<rect x="118.212" y="66.565" transform="matrix(-0.7071 0.7071 -0.7071 -0.7071 552.8745 209.9406)" fill="#2D2D2D" width="229.491" height="305.82"/>
<circle fill="none" stroke="#C3C3C3" stroke-miterlimit="10" cx="352.691" cy="339.208" r="9.079"/>
</svg>
