<?xml version="1.0" encoding="utf-8"?>
<!-- Generator: Adobe Illustrator 16.0.0, SVG Export Plug-In . SVG Version: 6.00 Build 0)  -->
<!DOCTYPE svg PUBLIC "-//W3C//DTD SVG 1.1//EN" "http://www.w3.org/Graphics/SVG/1.1/DTD/svg11.dtd">
<svg version="1.1" id="Layer_1" xmlns="http://www.w3.org/2000/svg" xmlns:xlink="http://www.w3.org/1999/xlink" x="0px" y="0px"
	 width="165.086px" height="274.75px" viewBox="0 0 165.086 274.75" enable-background="new 0 0 165.086 274.75"
	 xml:space="preserve">
<g>
	
		<rect x="40.338" y="29.571" transform="matrix(-0.9878 -0.1557 0.1557 -0.9878 77.1425 73.0887)" fill-rule="evenodd" clip-rule="evenodd" fill="#ECDAC5" width="2.192" height="7.903"/>
	
		<rect x="37.283" y="45.947" transform="matrix(-0.9878 -0.1558 0.1558 -0.9878 68.0473 111.1469)" fill-rule="evenodd" clip-rule="evenodd" fill="#ECDAC5" width="2.191" height="13.921"/>
	
		<rect x="34.59" y="63.024" transform="matrix(-0.9878 -0.1557 0.1557 -0.9878 60.038 144.673)" fill-rule="evenodd" clip-rule="evenodd" fill="#ECDAC5" width="2.192" height="13.921"/>
	
		<rect x="144.288" y="62.861" transform="matrix(-0.9878 -0.1559 0.1559 -0.9878 278.1002 161.4588)" fill-rule="evenodd" clip-rule="evenodd" fill="#ECDAC5" width="2.189" height="13.921"/>
	<g>
		<path fill="#FFFFFF" d="M106.996,236.755c-0.701,0-1.41-0.056-2.107-0.165l-79.294-12.502c-3.544-0.559-6.659-2.464-8.77-5.365
			c-2.111-2.9-2.966-6.45-2.408-9.995L44.5,17.898c1.037-6.573,6.61-11.344,13.253-11.344c0.701,0,1.411,0.056,2.109,0.166
			l79.294,12.5c3.545,0.559,6.659,2.464,8.771,5.366s2.966,6.452,2.407,9.996L120.25,225.413
			C119.215,231.984,113.64,236.755,106.996,236.755C106.995,236.755,106.996,236.755,106.996,236.755z"/>
		<g>
			<path fill="#ECDAC5" d="M57.753,7.054c0.669,0,1.349,0.052,2.031,0.16l79.294,12.501c7.057,1.112,11.875,7.734,10.762,14.79
				l-30.084,190.831c-1.004,6.373-6.504,10.92-12.76,10.92c-0.67,0-1.348-0.052-2.029-0.159l-79.294-12.502
				c-7.056-1.111-11.874-7.732-10.762-14.788l30.084-190.83C46,11.602,51.499,7.054,57.753,7.054 M57.753,6.054
				c-6.891,0-12.672,4.948-13.747,11.766L13.923,208.65c-0.58,3.676,0.307,7.357,2.497,10.367c2.189,3.009,5.42,4.985,9.097,5.564
				l79.295,12.502c0.723,0.113,1.458,0.171,2.185,0.171c6.892,0,12.674-4.947,13.748-11.765l30.084-190.83
				c0.579-3.676-0.307-7.358-2.497-10.368c-2.189-3.01-5.421-4.986-9.098-5.565L59.94,6.226C59.216,6.112,58.481,6.054,57.753,6.054
				L57.753,6.054z"/>
		</g>
	</g>
	
		<rect x="34.338" y="34.896" transform="matrix(0.9878 0.1557 -0.1557 0.9878 19.7632 -11.3884)" fill="#2D2D2D" width="96.458" height="171.093"/>
	<circle fill="none" stroke="#ECDAC5" stroke-miterlimit="10" cx="67.343" cy="217.011" r="7.095"/>
	<circle cx="83.304" cy="21.771" r="1.751"/>
	<path d="M90.311,22.876c-0.047,0.294,0.154,0.57,0.447,0.617l13.84,2.182c0.295,0.047,0.57-0.155,0.617-0.449
		c0.045-0.293-0.154-0.57-0.449-0.616l-13.84-2.182C90.633,22.381,90.357,22.583,90.311,22.876
		C90.311,22.876,90.357,22.583,90.311,22.876z"/>
	<circle cx="98.717" cy="17.996" r="1.078"/>
</g>
</svg>
