<?xml version="1.0" encoding="utf-8"?>
<!-- Generator: Adobe Illustrator 16.0.0, SVG Export Plug-In . SVG Version: 6.00 Build 0)  -->
<!DOCTYPE svg PUBLIC "-//W3C//DTD SVG 1.1//EN" "http://www.w3.org/Graphics/SVG/1.1/DTD/svg11.dtd">
<svg version="1.1" id="Layer_1" xmlns="http://www.w3.org/2000/svg" xmlns:xlink="http://www.w3.org/1999/xlink" x="0px" y="0px"
	 width="602px" height="513.008px" viewBox="0 0 602 513.008" enable-background="new 0 0 602 513.008" xml:space="preserve">
<path fill="#DCDEDF" d="M534.451,138.982l-33.479,1.453l0.688,15.817l-376.928,16.362l-0.687-15.818l-33.277,1.444
	c-10.209,0.443-18.128,9.079-17.685,19.289l12.733,293.325c0.443,10.212,9.079,18.13,19.29,17.687l443.683-19.258
	c10.211-0.443,18.129-9.082,17.686-19.291l-12.73-293.324C553.299,146.456,544.664,138.539,534.451,138.982z"/>
<path fill="#CFD1D2" d="M131.435,338.838c0.118,2.723,2.42,4.834,5.144,4.715l367.478-15.949c2.725-0.116,4.834-2.422,4.717-5.146
	l-6.215-143.091c-0.113-2.724-2.42-4.835-5.141-4.716l-367.479,15.951c-2.723,0.118-4.833,2.421-4.716,5.144L131.435,338.838z"/>
<path fill="#2B2B2C" d="M131.766,207.813c0.059,1.362,1.21,2.417,2.571,2.357l19.053-0.826c1.361-0.059,2.417-1.21,2.358-2.572
	l-0.4-9.243c-0.06-1.361-1.211-2.417-2.572-2.358l-19.053,0.827c-1.361,0.059-2.417,1.211-2.358,2.572L131.766,207.813z"/>
<path fill="#2B2B2C" d="M158.07,206.672c0.059,1.361,1.21,2.417,2.571,2.357l19.052-0.826c1.36-0.06,2.417-1.211,2.357-2.572
	l-0.401-9.244c-0.059-1.361-1.21-2.417-2.572-2.357l-19.051,0.827c-1.361,0.06-2.417,1.21-2.357,2.572L158.07,206.672z"/>
<path fill="#2B2B2C" d="M184.375,205.53c0.06,1.362,1.211,2.417,2.572,2.358L206,207.061c1.361-0.059,2.417-1.211,2.358-2.572
	l-0.402-9.243c-0.059-1.361-1.21-2.417-2.572-2.358l-19.052,0.827c-1.361,0.059-2.417,1.211-2.358,2.571L184.375,205.53z"/>
<path fill="#2B2B2C" d="M210.68,204.388c0.059,1.361,1.211,2.417,2.572,2.358l19.053-0.827c1.361-0.059,2.416-1.21,2.358-2.572
	l-0.401-9.244c-0.059-1.361-1.21-2.417-2.572-2.357l-19.052,0.827c-1.361,0.058-2.417,1.21-2.358,2.571L210.68,204.388z"/>
<path fill="#2B2B2C" d="M236.983,203.247c0.059,1.361,1.211,2.417,2.572,2.358l19.053-0.828c1.361-0.059,2.416-1.21,2.357-2.571
	l-0.4-9.243c-0.059-1.361-1.211-2.417-2.572-2.358l-19.052,0.828c-1.362,0.059-2.417,1.21-2.358,2.572L236.983,203.247z"/>
<path fill="#2B2B2C" d="M263.289,202.106c0.059,1.36,1.21,2.417,2.572,2.356l19.052-0.827c1.361-0.059,2.417-1.21,2.358-2.572
	l-0.4-9.243c-0.059-1.361-1.211-2.418-2.573-2.358l-19.053,0.827c-1.361,0.059-2.417,1.21-2.357,2.571L263.289,202.106z"/>
<path fill="#2B2B2C" d="M289.594,200.963c0.059,1.361,1.21,2.417,2.57,2.358l19.053-0.827c1.363-0.059,2.418-1.21,2.359-2.571
	l-0.402-9.243c-0.059-1.362-1.211-2.417-2.57-2.358l-19.053,0.827c-1.361,0.06-2.418,1.211-2.358,2.572L289.594,200.963z"/>
<path fill="#2B2B2C" d="M315.898,199.821c0.059,1.361,1.211,2.417,2.572,2.358l19.051-0.827c1.359-0.059,2.418-1.21,2.357-2.572
	l-0.4-9.243c-0.061-1.362-1.211-2.417-2.572-2.359l-19.053,0.828c-1.359,0.059-2.416,1.21-2.357,2.571L315.898,199.821z"/>
<path fill="#2B2B2C" d="M342.201,198.68c0.061,1.361,1.211,2.417,2.572,2.358l19.053-0.827c1.361-0.06,2.418-1.21,2.357-2.572
	l-0.4-9.244c-0.059-1.361-1.211-2.417-2.57-2.358l-19.053,0.827c-1.361,0.059-2.418,1.21-2.357,2.572L342.201,198.68z"/>
<path fill="#2B2B2C" d="M368.508,197.538c0.061,1.361,1.211,2.417,2.572,2.358l19.051-0.827c1.363-0.059,2.418-1.21,2.359-2.572
	l-0.4-9.244c-0.059-1.361-1.213-2.417-2.572-2.358l-19.055,0.827c-1.359,0.06-2.416,1.211-2.357,2.572L368.508,197.538z"/>
<path fill="#2B2B2C" d="M394.811,196.396c0.061,1.361,1.211,2.417,2.574,2.357l19.051-0.827c1.359-0.059,2.416-1.21,2.357-2.572
	l-0.4-9.243c-0.059-1.361-1.213-2.417-2.572-2.357l-19.053,0.826c-1.357,0.059-2.418,1.211-2.355,2.573L394.811,196.396z"/>
<path fill="#2B2B2C" d="M421.119,195.255c0.057,1.36,1.209,2.416,2.566,2.357l19.057-0.827c1.357-0.059,2.416-1.21,2.354-2.571
	l-0.398-9.244c-0.061-1.362-1.209-2.417-2.57-2.358l-19.055,0.827c-1.359,0.059-2.414,1.21-2.355,2.572L421.119,195.255z"/>
<path fill="#2B2B2C" d="M447.42,194.112c0.063,1.361,1.211,2.417,2.572,2.358l19.053-0.828c1.363-0.058,2.418-1.21,2.357-2.572
	l-0.4-9.243c-0.059-1.361-1.211-2.417-2.572-2.358l-19.051,0.827c-1.361,0.059-2.418,1.211-2.355,2.572L447.42,194.112z"/>
<path fill="#2B2B2C" d="M473.727,192.971c0.061,1.361,1.213,2.417,2.572,2.357l19.055-0.827c1.357-0.059,2.414-1.211,2.355-2.572
	l-0.4-9.244c-0.059-1.361-1.213-2.417-2.57-2.357l-19.055,0.826c-1.357,0.059-2.416,1.211-2.355,2.572L473.727,192.971z"/>
<path fill="#2B2B2C" d="M132.651,232.362c0.074,1.702,1.513,3.022,3.214,2.948l16.022-0.695c1.702-0.074,3.022-1.512,2.947-3.214
	l-0.694-16.021c-0.075-1.703-1.514-3.022-3.215-2.948l-16.022,0.696c-1.702,0.074-3.021,1.512-2.948,3.214L132.651,232.362z"/>
<path fill="#2B2B2C" d="M158.109,231.257c0.074,1.702,1.514,3.021,3.215,2.947l16.022-0.696c1.701-0.073,3.021-1.512,2.947-3.214
	l-0.694-16.021c-0.074-1.702-1.514-3.021-3.215-2.948l-16.022,0.695c-1.701,0.075-3.021,1.513-2.948,3.216L158.109,231.257z"/>
<path fill="#2B2B2C" d="M183.568,230.152c0.073,1.702,1.513,3.021,3.215,2.947l16.022-0.695c1.702-0.075,3.021-1.514,2.948-3.216
	l-0.696-16.021c-0.073-1.702-1.513-3.021-3.215-2.948l-16.022,0.696c-1.702,0.073-3.021,1.513-2.948,3.215L183.568,230.152z"/>
<path fill="#2B2B2C" d="M209.026,229.047c0.074,1.701,1.513,3.021,3.215,2.948l16.022-0.696c1.702-0.074,3.021-1.513,2.947-3.214
	l-0.695-16.022c-0.073-1.702-1.513-3.021-3.215-2.948l-16.021,0.695c-1.702,0.074-3.022,1.514-2.948,3.215L209.026,229.047z"/>
<path fill="#2B2B2C" d="M234.485,227.942c0.074,1.702,1.513,3.021,3.214,2.947l16.022-0.695c1.702-0.075,3.021-1.513,2.948-3.215
	l-0.695-16.021c-0.075-1.702-1.514-3.021-3.216-2.948l-16.021,0.695c-1.702,0.075-3.021,1.514-2.947,3.215L234.485,227.942z"/>
<path fill="#2B2B2C" d="M259.943,226.837c0.074,1.702,1.513,3.021,3.215,2.947l16.023-0.696c1.701-0.073,3.021-1.513,2.947-3.214
	l-0.696-16.022c-0.074-1.702-1.513-3.021-3.215-2.948l-16.022,0.695c-1.702,0.074-3.021,1.513-2.947,3.215L259.943,226.837z"/>
<path fill="#2B2B2C" d="M285.402,225.732c0.074,1.702,1.513,3.021,3.215,2.948l16.021-0.696c1.701-0.074,3.021-1.513,2.945-3.215
	l-0.693-16.022c-0.074-1.701-1.514-3.02-3.217-2.946l-16.02,0.695c-1.702,0.073-3.021,1.512-2.948,3.214L285.402,225.732z"/>
<path fill="#2B2B2C" d="M310.859,224.626c0.074,1.702,1.514,3.022,3.217,2.948l16.021-0.695c1.699-0.074,3.021-1.513,2.945-3.215
	l-0.693-16.022c-0.074-1.702-1.516-3.021-3.217-2.947l-16.021,0.696c-1.699,0.074-3.021,1.513-2.945,3.215L310.859,224.626z"/>
<path fill="#2B2B2C" d="M336.318,223.521c0.074,1.703,1.514,3.022,3.217,2.948l16.021-0.695c1.699-0.074,3.021-1.514,2.945-3.215
	l-0.693-16.021c-0.074-1.702-1.516-3.021-3.217-2.948l-16.021,0.695c-1.699,0.074-3.021,1.514-2.947,3.216L336.318,223.521z"/>
<path fill="#2B2B2C" d="M361.777,222.417c0.074,1.701,1.514,3.021,3.215,2.947l16.021-0.695c1.699-0.073,3.021-1.513,2.945-3.215
	l-0.693-16.021c-0.072-1.702-1.516-3.021-3.217-2.948l-16.021,0.696c-1.7,0.074-3.021,1.513-2.946,3.215L361.777,222.417z"/>
<path fill="#2B2B2C" d="M387.234,221.312c0.076,1.702,1.516,3.021,3.217,2.947l16.021-0.695c1.699-0.074,3.021-1.513,2.947-3.215
	l-0.693-16.021c-0.074-1.702-1.518-3.022-3.219-2.948l-16.021,0.695c-1.7,0.074-3.021,1.514-2.946,3.215L387.234,221.312z"/>
<path fill="#2B2B2C" d="M412.693,220.207c0.074,1.702,1.516,3.021,3.215,2.947l16.021-0.696c1.703-0.074,3.021-1.513,2.947-3.214
	l-0.695-16.021c-0.072-1.702-1.51-3.021-3.213-2.948l-16.021,0.695c-1.703,0.075-3.021,1.513-2.947,3.215L412.693,220.207z"/>
<path fill="#2B2B2C" d="M438.152,219.102c0.072,1.702,1.516,3.021,3.217,2.947l16.021-0.696c1.701-0.073,3.021-1.512,2.945-3.215
	l-0.695-16.021c-0.07-1.702-1.512-3.021-3.215-2.947l-16.02,0.695c-1.703,0.074-3.021,1.513-2.947,3.215L438.152,219.102z"/>
<path fill="#2B2B2C" d="M172.196,255.341c0.073,1.703,1.512,3.022,3.214,2.949l16.021-0.694c1.703-0.074,3.022-1.515,2.949-3.216
	l-0.696-16.022c-0.074-1.702-1.514-3.021-3.215-2.948l-16.022,0.696c-1.702,0.074-3.021,1.513-2.946,3.215L172.196,255.341z"/>
<path fill="#2B2B2C" d="M197.656,254.236c0.074,1.701,1.512,3.021,3.215,2.948l16.021-0.696c1.702-0.074,3.021-1.514,2.947-3.215
	l-0.696-16.022c-0.073-1.702-1.512-3.021-3.215-2.947L199.908,235c-1.703,0.074-3.021,1.513-2.948,3.215L197.656,254.236z"/>
<path fill="#2B2B2C" d="M223.114,253.132c0.073,1.702,1.512,3.021,3.214,2.946l16.022-0.695c1.702-0.074,3.021-1.512,2.947-3.214
	l-0.695-16.022c-0.074-1.703-1.514-3.022-3.216-2.948l-16.021,0.696c-1.702,0.074-3.021,1.513-2.947,3.214L223.114,253.132z"/>
<path fill="#2B2B2C" d="M248.573,252.025c0.074,1.703,1.512,3.021,3.215,2.947l16.022-0.693c1.702-0.075,3.021-1.514,2.947-3.217
	l-0.696-16.021c-0.074-1.701-1.512-3.02-3.214-2.947l-16.022,0.695c-1.701,0.074-3.021,1.514-2.947,3.215L248.573,252.025z"/>
<path fill="#2B2B2C" d="M274.031,250.921c0.074,1.702,1.513,3.021,3.214,2.948l16.022-0.695c1.702-0.074,3.021-1.514,2.946-3.215
	l-0.694-16.022c-0.074-1.702-1.513-3.021-3.215-2.948l-16.022,0.695c-1.701,0.074-3.021,1.514-2.947,3.215L274.031,250.921z"/>
<path fill="#2B2B2C" d="M299.49,249.816c0.073,1.701,1.512,3.021,3.215,2.947l16.02-0.695c1.703-0.074,3.023-1.514,2.947-3.215
	l-0.695-16.022c-0.074-1.702-1.512-3.021-3.213-2.947l-16.023,0.696c-1.699,0.073-3.021,1.513-2.945,3.215L299.49,249.816z"/>
<path fill="#2B2B2C" d="M324.947,248.711c0.072,1.702,1.514,3.021,3.215,2.947l16.021-0.695c1.699-0.074,3.021-1.513,2.945-3.215
	l-0.693-16.022c-0.074-1.702-1.516-3.021-3.217-2.947l-16.021,0.695c-1.703,0.074-3.021,1.513-2.947,3.215L324.947,248.711z"/>
<path fill="#2B2B2C" d="M350.406,247.605c0.072,1.703,1.512,3.021,3.215,2.947l16.021-0.695c1.699-0.073,3.021-1.512,2.945-3.215
	l-0.693-16.021c-0.074-1.702-1.516-3.021-3.215-2.948l-16.021,0.696c-1.701,0.073-3.021,1.513-2.947,3.214L350.406,247.605z"/>
<path fill="#2B2B2C" d="M375.865,246.501c0.072,1.702,1.512,3.021,3.215,2.947l16.02-0.696c1.703-0.072,3.021-1.512,2.949-3.214
	l-0.697-16.022c-0.072-1.702-1.512-3.021-3.215-2.947l-16.02,0.696c-1.703,0.073-3.021,1.512-2.947,3.215L375.865,246.501z"/>
<path fill="#2B2B2C" d="M401.324,245.396c0.072,1.702,1.514,3.022,3.213,2.947l16.021-0.694c1.701-0.073,3.021-1.514,2.945-3.215
	l-0.692-16.022c-0.075-1.702-1.515-3.021-3.216-2.947l-16.021,0.695c-1.703,0.074-3.021,1.513-2.947,3.215L401.324,245.396z"/>
<path fill="#2B2B2C" d="M426.781,244.291c0.074,1.702,1.512,3.021,3.215,2.947l16.021-0.694c1.699-0.073,3.021-1.514,2.947-3.215
	l-0.695-16.022c-0.072-1.703-1.514-3.021-3.215-2.948l-16.021,0.696c-1.701,0.075-3.021,1.513-2.947,3.215L426.781,244.291z"/>
<path fill="#2B2B2C" d="M452.24,243.186c0.074,1.702,1.512,3.021,3.215,2.948l16.021-0.696c1.701-0.075,3.021-1.514,2.945-3.215
	l-0.691-16.022c-0.074-1.701-1.516-3.021-3.217-2.948l-16.021,0.696c-1.703,0.074-3.023,1.514-2.947,3.215L452.24,243.186z"/>
<path fill="#2B2B2C" d="M477.699,242.081c0.074,1.701,1.512,3.021,3.213,2.948l16.021-0.696c1.703-0.074,3.021-1.514,2.949-3.215
	l-0.697-16.022c-0.07-1.702-1.514-3.021-3.215-2.947l-16.02,0.695c-1.701,0.074-3.021,1.513-2.949,3.214L477.699,242.081z"/>
<path fill="#2B2B2C" d="M179.666,279.92c0.074,1.701,1.513,3.021,3.215,2.945l16.022-0.695c1.701-0.072,3.021-1.512,2.947-3.215
	l-0.696-16.021c-0.074-1.701-1.513-3.021-3.215-2.947l-16.022,0.695c-1.702,0.074-3.021,1.517-2.948,3.217L179.666,279.92z"/>
<path fill="#2B2B2C" d="M205.125,278.814c0.074,1.701,1.513,3.021,3.215,2.943l16.021-0.691c1.702-0.073,3.022-1.516,2.949-3.217
	l-0.696-16.021c-0.074-1.701-1.513-3.021-3.215-2.949l-16.021,0.695c-1.702,0.072-3.022,1.514-2.947,3.215L205.125,278.814z"/>
<path fill="#2B2B2C" d="M230.583,277.709c0.074,1.701,1.513,3.021,3.215,2.947l16.021-0.695c1.702-0.074,3.021-1.516,2.948-3.215
	l-0.695-16.021c-0.074-1.703-1.513-3.021-3.215-2.949l-16.022,0.697c-1.702,0.072-3.022,1.512-2.948,3.215L230.583,277.709z"/>
<path fill="#2B2B2C" d="M256.041,276.604c0.074,1.703,1.514,3.021,3.216,2.947l16.021-0.695c1.702-0.071,3.022-1.514,2.948-3.215
	l-0.696-16.021c-0.074-1.701-1.514-3.021-3.215-2.947l-16.022,0.695c-1.702,0.073-3.021,1.514-2.946,3.215L256.041,276.604z"/>
<path fill="#2B2B2C" d="M281.5,275.499c0.074,1.703,1.513,3.021,3.215,2.946l16.022-0.694c1.703-0.074,3.021-1.513,2.947-3.215
	l-0.695-16.021c-0.07-1.702-1.512-3.021-3.213-2.948l-16.022,0.695c-1.701,0.074-3.021,1.514-2.947,3.215L281.5,275.499z"/>
<path fill="#2B2B2C" d="M306.957,274.395c0.074,1.701,1.514,3.021,3.215,2.947l16.021-0.695c1.703-0.074,3.021-1.514,2.947-3.217
	l-0.695-16.021c-0.072-1.701-1.514-3.021-3.215-2.947l-16.021,0.696c-1.701,0.072-3.021,1.513-2.947,3.213L306.957,274.395z"/>
<path fill="#2B2B2C" d="M332.418,273.29c0.074,1.701,1.512,3.021,3.213,2.946l16.023-0.696c1.701-0.072,3.021-1.513,2.945-3.213
	l-0.693-16.021c-0.074-1.703-1.514-3.021-3.217-2.949l-16.021,0.697c-1.703,0.072-3.021,1.512-2.947,3.215L332.418,273.29z"/>
<path fill="#2B2B2C" d="M357.875,272.184c0.074,1.701,1.512,3.021,3.215,2.947l16.021-0.695c1.701-0.074,3.021-1.514,2.947-3.215
	l-0.693-16.021c-0.076-1.703-1.516-3.021-3.217-2.947l-16.021,0.694c-1.703,0.072-3.021,1.513-2.947,3.216L357.875,272.184z"/>
<path fill="#2B2B2C" d="M383.334,271.079c0.072,1.7,1.514,3.021,3.215,2.946l16.021-0.694c1.701-0.074,3.021-1.515,2.947-3.215
	l-0.695-16.022c-0.074-1.703-1.514-3.021-3.215-2.947l-16.021,0.695c-1.701,0.074-3.021,1.514-2.945,3.215L383.334,271.079z"/>
<path fill="#2B2B2C" d="M408.791,269.973c0.074,1.703,1.514,3.021,3.217,2.947l16.021-0.693c1.703-0.074,3.021-1.516,2.945-3.217
	l-0.693-16.021c-0.072-1.7-1.514-3.021-3.215-2.946l-16.021,0.694c-1.701,0.074-3.021,1.515-2.945,3.216L408.791,269.973z"/>
<path fill="#2B2B2C" d="M434.252,268.87c0.072,1.7,1.514,3.021,3.213,2.946l16.023-0.694c1.701-0.076,3.021-1.515,2.945-3.216
	l-0.693-16.023c-0.074-1.701-1.516-3.021-3.215-2.947l-16.021,0.696c-1.701,0.073-3.021,1.513-2.949,3.214L434.252,268.87z"/>
<path fill="#2B2B2C" d="M193.474,304.221c0.074,1.703,1.513,3.021,3.215,2.947l16.021-0.695c1.702-0.071,3.021-1.514,2.947-3.215
	l-0.695-16.021c-0.074-1.698-1.513-3.021-3.215-2.944l-16.021,0.692c-1.703,0.074-3.021,1.517-2.948,3.218L193.474,304.221z"/>
<path fill="#2B2B2C" d="M218.934,303.116c0.073,1.703,1.513,3.02,3.215,2.949l16.021-0.697c1.702-0.074,3.021-1.512,2.948-3.213
	l-0.695-16.023c-0.074-1.7-1.514-3.021-3.215-2.946l-16.022,0.694c-1.702,0.074-3.021,1.515-2.948,3.218L218.934,303.116z"/>
<path fill="#2B2B2C" d="M244.393,302.012c0.074,1.701,1.513,3.021,3.214,2.947l16.022-0.695c1.701-0.071,3.021-1.514,2.947-3.215
	l-0.695-16.023c-0.073-1.698-1.514-3.021-3.214-2.944l-16.021,0.694c-1.702,0.072-3.021,1.515-2.947,3.216L244.393,302.012z"/>
<path fill="#2B2B2C" d="M269.849,300.907c0.073,1.701,1.513,3.02,3.215,2.944l16.022-0.692c1.701-0.074,3.021-1.517,2.947-3.215
	l-0.695-16.021c-0.073-1.702-1.514-3.021-3.215-2.946l-16.021,0.694c-1.702,0.072-3.022,1.513-2.949,3.216L269.849,300.907z"/>
<path fill="#2B2B2C" d="M295.308,299.801c0.075,1.701,1.513,3.021,3.215,2.947l16.022-0.695c1.703-0.074,3.021-1.514,2.947-3.215
	l-0.695-16.021c-0.074-1.7-1.514-3.021-3.215-2.944l-16.021,0.692c-1.702,0.074-3.021,1.517-2.947,3.215L295.308,299.801z"/>
<path fill="#2B2B2C" d="M320.766,298.698c0.074,1.699,1.518,3.02,3.215,2.942l16.021-0.692c1.701-0.074,3.021-1.517,2.947-3.215
	l-0.695-16.021c-0.074-1.703-1.514-3.021-3.215-2.946l-16.021,0.694c-1.701,0.074-3.02,1.515-2.947,3.215L320.766,298.698z"/>
<path fill="#2B2B2C" d="M346.225,297.592c0.074,1.701,1.512,3.021,3.215,2.945l16.021-0.695c1.703-0.074,3.021-1.512,2.947-3.215
	l-0.693-16.021c-0.076-1.698-1.514-3.021-3.217-2.944l-16.021,0.692c-1.701,0.074-3.02,1.517-2.943,3.215L346.225,297.592z"/>
<path fill="#2B2B2C" d="M371.684,296.486c0.074,1.699,1.516,3.021,3.215,2.945l16.023-0.694c1.699-0.072,3.02-1.513,2.945-3.214
	l-0.695-16.022c-0.074-1.701-1.514-3.021-3.215-2.946l-16.021,0.694c-1.703,0.074-3.021,1.515-2.945,3.215L371.684,296.486z"/>
<path fill="#2B2B2C" d="M397.141,295.381c0.074,1.701,1.518,3.021,3.217,2.945l16.021-0.693c1.703-0.074,3.021-1.514,2.951-3.215
	l-0.697-16.021c-0.074-1.703-1.514-3.021-3.217-2.944l-16.021,0.692c-1.701,0.072-3.021,1.515-2.949,3.215L397.141,295.381z"/>
<path fill="#2B2B2C" d="M422.602,294.275c0.072,1.701,1.516,3.021,3.215,2.947l16.021-0.695c1.701-0.073,3.021-1.514,2.947-3.215
	l-0.695-16.021c-0.074-1.701-1.512-3.021-3.215-2.947l-16.021,0.695c-1.699,0.072-3.02,1.512-2.945,3.215L422.602,294.275z"/>
<path fill="#2B2B2C" d="M133.722,257.012c0.073,1.701,1.513,3.021,3.215,2.947l29.04-1.26c1.702-0.074,3.021-1.516,2.947-3.218
	l-0.695-16.021c-0.074-1.702-1.513-3.022-3.215-2.949l-29.04,1.261c-1.703,0.074-3.021,1.513-2.948,3.215L133.722,257.012z"/>
<path fill="#2B2B2C" d="M463.611,217.997c0.07,1.701,1.512,3.021,3.213,2.948l29.041-1.261c1.701-0.075,3.02-1.513,2.949-3.215
	l-0.697-16.022c-0.072-1.702-1.516-3.021-3.213-2.948l-29.041,1.261c-1.703,0.073-3.021,1.513-2.947,3.214L463.611,217.997z"/>
<path fill="#2B2B2C" d="M134.8,281.868c0.074,1.7,1.512,3.021,3.214,2.946l35.279-1.53c1.701-0.074,3.021-1.515,2.947-3.216
	l-0.695-16.022c-0.074-1.7-1.513-3.021-3.215-2.946l-35.279,1.53c-1.702,0.074-3.021,1.515-2.947,3.218L134.8,281.868z"/>
<path fill="#2B2B2C" d="M459.521,267.771c0.072,1.701,1.512,3.021,3.215,2.945l35.275-1.529c1.703-0.074,3.021-1.516,2.949-3.215
	l-0.695-16.021c-0.07-1.703-1.514-3.021-3.215-2.947l-35.277,1.531c-1.701,0.072-3.021,1.512-2.945,3.215L459.521,267.771z"/>
<path fill="#2B2B2C" d="M135.878,306.723c0.074,1.701,1.513,3.021,3.215,2.945l48.143-2.09c1.702-0.072,3.021-1.514,2.948-3.213
	l-0.695-16.023c-0.074-1.701-1.514-3.021-3.215-2.947l-48.142,2.09c-1.703,0.074-3.022,1.517-2.948,3.218L135.878,306.723z"/>
<path fill="#2B2B2C" d="M447.734,293.186c0.07,1.701,1.514,3.021,3.215,2.945l48.145-2.088c1.701-0.076,3.021-1.516,2.947-3.217
	l-0.695-16.021c-0.072-1.701-1.514-3.021-3.215-2.945l-48.143,2.091c-1.703,0.071-3.023,1.514-2.949,3.215L447.734,293.186z"/>
<path fill="#2B2B2C" d="M137.095,334.733c0.075,1.7,1.513,3.02,3.215,2.946l29.04-1.262c1.701-0.074,3.022-1.514,2.948-3.215
	l-0.83-19.105c-0.074-1.698-1.513-3.02-3.214-2.944l-29.04,1.262c-1.702,0.074-3.021,1.512-2.948,3.215L137.095,334.733z"/>
<path fill="#2B2B2C" d="M207.418,331.682c0.074,1.701,1.512,3.021,3.215,2.945l29.039-1.26c1.702-0.074,3.021-1.515,2.948-3.215
	l-0.83-19.104c-0.074-1.703-1.513-3.021-3.214-2.949l-29.04,1.265c-1.702,0.069-3.022,1.512-2.948,3.215L207.418,331.682z"/>
<path fill="#2B2B2C" d="M175.377,333.073c0.074,1.701,1.513,3.02,3.215,2.944l22.604-0.979c1.702-0.072,3.021-1.512,2.948-3.215
	l-0.829-19.105c-0.074-1.701-1.513-3.02-3.215-2.944l-22.604,0.979c-1.702,0.076-3.022,1.516-2.948,3.217L175.377,333.073z"/>
<path fill="#2B2B2C" d="M372.898,324.499c0.074,1.701,1.516,3.02,3.217,2.947l22.604-0.98c1.701-0.074,3.021-1.514,2.947-3.217
	l-0.83-19.104c-0.072-1.7-1.512-3.021-3.215-2.944l-22.605,0.979c-1.701,0.074-3.02,1.517-2.947,3.215L372.898,324.499z"/>
<path fill="#2B2B2C" d="M245.607,330.024c0.074,1.698,1.513,3.02,3.214,2.944l117.856-5.115c1.701-0.071,3.021-1.514,2.947-3.217
	l-0.828-19.102c-0.073-1.703-1.514-3.021-3.217-2.947l-117.854,5.115c-1.702,0.074-3.022,1.514-2.947,3.215L245.607,330.024z"/>
<path fill="#2B2B2C" d="M404.697,323.118c0.074,1.703,1.514,3.02,3.213,2.947l16.607-0.724c1.701-0.074,3.021-1.514,2.947-3.215
	l-0.828-19.104c-0.072-1.701-1.516-3.021-3.217-2.947l-16.605,0.721c-1.703,0.074-3.021,1.517-2.945,3.215L404.697,323.118z"/>
<path fill="#2B2B2C" d="M429.881,322.024c0.074,1.7,1.516,3.02,3.215,2.946l17.309-0.752c1.701-0.072,3.021-1.514,2.943-3.215
	l-0.354-8.188c-0.072-1.701-1.514-3.021-3.215-2.947l-17.309,0.752c-1.703,0.072-3.02,1.514-2.945,3.215L429.881,322.024z"/>
<path fill="#2B2B2C" d="M479.789,319.858c0.074,1.7,1.514,3.02,3.215,2.944l17.305-0.75c1.703-0.071,3.021-1.514,2.949-3.217
	l-0.354-8.188c-0.072-1.701-1.516-3.021-3.213-2.947l-17.311,0.75c-1.701,0.076-3.02,1.514-2.947,3.215L479.789,319.858z"/>
<path fill="#2B2B2C" d="M455.197,320.926c0.072,1.701,1.514,3.021,3.215,2.947l16.639-0.723c1.701-0.074,3.021-1.517,2.949-3.218
	l-0.832-19.102c-0.072-1.703-1.512-3.023-3.215-2.949l-16.639,0.726c-1.699,0.071-3.021,1.514-2.945,3.215L455.197,320.926z"/>
<g>
	<path fill="#E4E6E7" d="M254.934,456.686c0.119,2.726,2.421,4.832,5.144,4.718l131.82-5.726c2.726-0.117,4.834-2.42,4.72-5.143
		l-4.039-93.039c-0.119-2.721-2.422-4.834-5.146-4.715l-131.823,5.723c-2.723,0.117-4.834,2.42-4.716,5.146L254.934,456.686z"/>
	<path fill="none" stroke="#BDBFC1" stroke-miterlimit="10" d="M254.934,456.686c0.119,2.726,2.421,4.832,5.144,4.718l131.82-5.726
		c2.726-0.117,4.834-2.42,4.72-5.143l-4.039-93.039c-0.119-2.721-2.422-4.834-5.146-4.715l-131.823,5.723
		c-2.723,0.117-4.834,2.42-4.716,5.146L254.934,456.686z"/>
</g>
<rect x="124.406" y="157.853" transform="matrix(-0.9991 0.0434 -0.0434 -0.9991 632.8419 308.5471)" fill="#919294" width="377.331" height="6.58"/>
<path fill="#AEB0B3" d="M293.52,480.362c-0.074-1.701,2.484-3.195,5.413-3.322l55.458-2.406c3.082-0.135,5.607,1.138,5.686,2.838
	L293.52,480.362z"/>
<path fill="#DCDEDF" d="M579.813,0.159L30.304,24.013c-6.75,0.292-11.547,8.458-11.251,15.265L67.21,140.949
	c4,7.7,6.006,12.087,12.755,11.793l461.525-20.034c6.75-0.293,8.367-4.838,11.686-12.854l39.166-105.461
	C592.045,7.586,586.561-0.133,579.813,0.159z"/>
<rect x="123.974" y="145.732" transform="matrix(-0.9991 0.0434 -0.0434 -0.9991 631.5424 288.6509)" fill="#212121" width="377.329" height="10.898"/>
<path d="M592.311,13.374c-0.896-6.008-6.385-10.393-12.566-10.125l-549.1,23.835c-6.187,0.27-11.271,5.113-11.646,11.176
	c-0.027,0.43-0.003,0.876,0.184,1.617c0.135,0.532,0.373,1.339,0.545,1.707c0.172,0.37,47.824,102.437,47.824,102.437
	c4,7.699,6.006,12.087,12.755,11.794l461.115-20.017c6.75-0.292,8.367-4.838,11.688-12.854c0,0,38.629-105.814,38.768-106.196
	c0.141-0.382,0.309-1.205,0.396-1.747C592.391,14.248,592.375,13.801,592.311,13.374z"/>
<path fill="#2D2D2D" d="M576.973,5.633L33.604,29.22c-10.093,0.437-13.705,6.538-11.17,12.288l45.598,97.501
	c3.823,7.361,5.225,11.021,9.852,11.252l465.371-19.521c4.59-0.631,5.67-4.398,8.842-12.063l37.07-101.77
	C591.195,10.959,587.068,5.195,576.973,5.633z"/>
<path fill="#2B2B2C" d="M503.053,133.966l-381.747,16.571c0,0,0.151,3.492,2.616,3.384c2.465-0.107,374.596-16.259,376.926-16.36
	C503.18,137.458,503.053,133.966,503.053,133.966z"/>
<polygon points="503.758,129.614 120.258,146.26 121.306,150.537 503.053,133.966 "/>
</svg>
