<?xml version="1.0" encoding="utf-8"?>
<!-- Generator: Adobe Illustrator 16.0.0, SVG Export Plug-In . SVG Version: 6.00 Build 0)  -->
<!DOCTYPE svg PUBLIC "-//W3C//DTD SVG 1.1//EN" "http://www.w3.org/Graphics/SVG/1.1/DTD/svg11.dtd">
<svg version="1.1" id="Layer_1" xmlns="http://www.w3.org/2000/svg" xmlns:xlink="http://www.w3.org/1999/xlink" x="0px" y="0px"
	 width="131px" height="234.813px" viewBox="0 0 131 234.813" enable-background="new 0 0 131 234.813" xml:space="preserve">
<g>
	<path fill="#F4F4F4" stroke="#C3C3C3" stroke-width="2" stroke-miterlimit="10" d="M14.723,146.418
		c0.456,22.67,9.183,34.797,30.817,39.5c7.639,1.661,14.428,1.874,19.382,2.042c20.13,0.682,33.917-6.355,39.314-32.178
		c2.281-10.922,5.924-32.403,8.17-53.686c3.242-30.717,3.681-53.169,3.82-57.665c1.172-26.006-9.283-35.271-32.006-39.688
		C80.854,4.09,74.918,2.91,64.84,2.703c-25.028-0.515-33.232,9.678-38.669,32.245c-2.772,11.507-6.394,33.405-8.467,55.422
		C15.613,112.596,14.456,133.213,14.723,146.418z"/>
</g>
</svg>
