<?xml version="1.0" encoding="utf-8"?>
<!-- Generator: Adobe Illustrator 16.0.0, SVG Export Plug-In . SVG Version: 6.00 Build 0)  -->
<!DOCTYPE svg PUBLIC "-//W3C//DTD SVG 1.1//EN" "http://www.w3.org/Graphics/SVG/1.1/DTD/svg11.dtd">
<svg version="1.1" id="Layer_1" xmlns="http://www.w3.org/2000/svg" xmlns:xlink="http://www.w3.org/1999/xlink" x="0px" y="0px"
	 width="355.1px" height="382px" viewBox="0 0 355.1 382" enable-background="new 0 0 355.1 382" xml:space="preserve">
<g>
	<g>
		<path fill="#DC3A51" d="M336.729,107.436L211.912,25.454L181.885,5.731l-3.896-2.56c-2.822-1.854-6.615-1.069-8.471,1.755
			l-2.558,3.896L18.879,234.271l-2.559,3.895c-1.854,2.824-1.071,6.618,1.755,8.473l3.896,2.561l30.024,19.72L176.813,350.9
			c4.976,3.27,11.658,1.886,14.926-3.093l148.08-225.449C343.086,117.387,341.703,110.704,336.729,107.436z M35.888,228.251
			l-4.705-3.093l3.091-4.707l4.707,3.093L35.888,228.251z M42.286,218.512l-4.707-3.092l3.092-4.708l4.707,3.093L42.286,218.512z
			 M48.682,208.771l-4.707-3.092l3.092-4.705l4.707,3.09L48.682,208.771z M55.079,199.034l-4.708-3.093l3.093-4.706l4.707,3.091
			L55.079,199.034z M61.476,189.295l-4.708-3.092l3.092-4.706l4.708,3.091L61.476,189.295z M67.871,179.557l-4.705-3.09l3.092-4.707
			l4.707,3.09L67.871,179.557z M74.267,169.819l-4.706-3.092l3.093-4.709l4.706,3.093L74.267,169.819z M80.665,160.079l-4.707-3.093
			l3.093-4.705l4.706,3.092L80.665,160.079z M87.06,150.34l-4.706-3.09l3.092-4.707l4.708,3.092L87.06,150.34z M93.458,140.602
			l-4.707-3.09l3.09-4.707l4.708,3.09L93.458,140.602z M99.854,130.865l-4.706-3.094l3.092-4.706l4.706,3.093L99.854,130.865z
			 M106.25,121.126l-4.707-3.092l3.094-4.708l4.705,3.093L106.25,121.126z M112.647,111.386l-4.709-3.091l3.093-4.707l4.708,3.091
			L112.647,111.386z M119.042,101.648l-4.706-3.091l3.093-4.708l4.705,3.092L119.042,101.648z M125.44,91.91l-4.708-3.093
			l3.092-4.707l4.707,3.092L125.44,91.91z M131.835,82.17l-4.706-3.09l3.093-4.708l4.707,3.093L131.835,82.17z M138.232,72.435
			l-4.708-3.093l3.094-4.708l4.705,3.092L138.232,72.435z M144.628,62.693l-4.707-3.092l3.093-4.706l4.708,3.091L144.628,62.693z
			 M151.025,52.954l-4.706-3.09l3.091-4.706l4.707,3.091L151.025,52.954z M157.421,43.216l-4.707-3.09l3.093-4.709l4.708,3.092
			L157.421,43.216z M163.818,33.479l-4.706-3.092l3.092-4.706l4.708,3.089L163.818,33.479z M170.217,23.738l-4.709-3.091
			l3.094-4.708l4.708,3.094L170.217,23.738z"/>
		<polygon fill="#404041" points="172.215,20.696 173.309,19.033 150.929,4.335 149.836,5.997 167.506,17.605 166.602,18.984 
			148.93,7.377 147.837,9.04 165.508,20.647 165.508,20.647 167.172,21.74 167.172,21.739 170.217,23.738 171.309,22.076 
			168.265,20.076 169.172,18.697 		"/>
		<polygon fill="#404041" points="165.818,30.435 166.912,28.77 144.532,14.073 143.439,15.736 161.111,27.343 160.205,28.723 
			142.532,17.116 141.44,18.78 159.112,30.387 159.112,30.387 160.775,31.479 160.775,31.479 163.818,33.479 164.912,31.814 
			161.869,29.814 162.775,28.436 		"/>
		<polygon fill="#404041" points="159.421,40.174 160.515,38.509 138.135,23.811 137.043,25.475 154.714,37.082 153.81,38.462 
			136.138,26.854 135.043,28.518 152.714,40.126 152.714,40.126 154.378,41.219 154.378,41.217 157.421,43.216 158.515,41.553 
			155.473,39.553 156.376,38.174 		"/>
		<polygon fill="#404041" points="153.025,49.912 154.118,48.249 131.739,33.55 130.646,35.213 148.317,46.82 147.413,48.199 
			129.742,36.592 128.648,38.256 146.319,49.864 146.319,49.864 147.982,50.956 147.982,50.956 151.025,52.954 152.121,51.291 
			149.074,49.292 149.98,47.912 		"/>
		<polygon fill="#404041" points="146.627,59.649 147.722,57.986 125.341,43.289 124.251,44.952 141.92,56.559 141.015,57.938 
			123.343,46.332 122.251,47.996 139.921,59.602 139.92,59.603 141.584,60.695 141.584,60.695 144.628,62.693 145.723,61.03 
			142.679,59.031 143.585,57.651 		"/>
		<polygon fill="#404041" points="140.231,69.39 141.323,67.726 118.945,53.025 117.854,54.69 135.524,66.296 134.619,67.677 
			116.947,56.071 115.855,57.735 133.524,69.342 133.524,69.342 135.188,70.435 135.188,70.435 138.232,72.435 139.326,70.771 
			136.282,68.77 137.188,67.391 		"/>
		<polygon fill="#404041" points="133.834,79.128 134.929,77.465 112.549,62.766 111.458,64.429 129.127,76.037 128.222,77.417 
			110.549,65.809 109.459,67.472 127.129,79.08 127.129,79.08 128.793,80.171 128.793,80.171 131.835,82.17 132.929,80.508 
			129.885,78.508 130.792,77.128 		"/>
		<polygon fill="#404041" points="127.438,88.865 128.531,87.202 106.153,72.503 105.061,74.167 122.731,85.775 121.827,87.153 
			104.153,75.547 103.063,77.21 120.732,88.817 120.732,88.817 122.396,89.911 122.396,89.91 125.44,91.91 126.531,90.245 
			123.489,88.247 124.395,86.866 		"/>
		<polygon fill="#404041" points="121.042,98.604 122.133,96.941 99.756,82.242 98.665,83.906 116.334,95.513 115.427,96.893 
			97.757,85.286 96.667,86.95 114.335,98.558 114.335,98.558 116,99.648 116,99.648 119.042,101.648 120.138,99.985 117.092,97.987 
			117.999,96.607 		"/>
		<polygon fill="#404041" points="114.646,108.343 115.739,106.679 93.359,91.981 92.269,93.645 109.938,105.252 109.034,106.632 
			91.361,95.024 90.269,96.688 107.938,108.295 107.938,108.296 109.603,109.387 109.603,109.387 112.647,111.386 113.74,109.723 
			110.696,107.724 111.602,106.345 		"/>
		<polygon fill="#404041" points="108.25,118.082 109.341,116.419 86.963,101.72 85.872,103.383 103.542,114.991 102.636,116.37 
			84.963,104.764 83.872,106.428 101.543,118.034 101.543,118.034 103.207,119.128 103.207,119.128 106.25,121.126 107.342,119.462 
			104.299,117.463 105.206,116.082 		"/>
		<polygon fill="#404041" points="101.853,127.821 102.945,126.158 80.566,111.459 79.475,113.123 97.146,124.729 96.239,126.108 
			78.567,114.502 77.476,116.165 95.147,127.771 95.147,127.771 96.811,128.865 96.811,128.865 99.854,130.865 100.946,129.2 
			97.903,127.201 98.81,125.822 		"/>
		<polygon fill="#404041" points="95.457,137.561 96.548,135.895 74.168,121.197 73.077,122.861 90.75,134.468 89.844,135.849 
			72.17,124.241 71.08,125.904 88.751,137.512 88.751,137.512 90.414,138.603 90.414,138.602 93.458,140.602 94.549,138.938 
			91.505,136.939 92.412,135.561 		"/>
		<polygon fill="#404041" points="89.06,147.298 90.153,145.635 67.774,130.935 66.682,132.599 84.352,144.207 83.447,145.587 
			65.774,133.979 64.684,135.643 82.354,147.25 82.354,147.25 84.018,148.343 84.018,148.343 87.06,150.34 88.154,148.676 
			85.11,146.678 86.016,145.298 		"/>
		<polygon fill="#404041" points="82.665,157.037 83.755,155.373 61.376,140.675 60.284,142.339 77.957,153.945 77.049,155.324 
			59.378,143.718 58.286,145.381 75.958,156.986 75.958,156.987 77.621,158.082 77.621,158.081 80.665,160.079 81.756,158.415 
			78.713,156.418 79.62,155.037 		"/>
		<polygon fill="#404041" points="76.267,166.775 77.359,165.111 54.981,150.413 53.886,152.076 71.561,163.683 70.654,165.063 
			52.981,153.457 51.889,155.12 69.561,166.728 69.56,166.728 71.224,167.82 71.224,167.819 74.267,169.819 75.361,168.156 
			72.316,166.156 73.223,164.776 		"/>
		<polygon fill="#404041" points="69.871,176.514 70.963,174.85 48.584,160.151 47.493,161.813 65.163,173.422 64.257,174.804 
			46.584,163.194 45.493,164.859 63.166,176.467 63.166,176.467 64.829,177.557 64.829,177.557 67.871,179.557 68.964,177.893 
			65.92,175.893 66.828,174.515 		"/>
		<polygon fill="#404041" points="63.474,186.253 64.567,184.588 42.188,169.89 41.096,171.555 58.767,183.162 57.86,184.54 
			40.188,172.934 39.096,174.597 56.768,186.203 56.768,186.203 58.431,187.297 58.431,187.297 61.476,189.295 62.567,187.632 
			59.523,185.633 60.429,184.254 		"/>
		<polygon fill="#404041" points="57.078,195.991 58.169,194.327 35.792,179.629 34.698,181.292 52.37,192.898 51.463,194.279 
			33.793,182.672 32.702,184.335 50.371,195.941 50.371,195.943 52.034,197.036 52.035,197.035 55.079,199.034 56.171,197.371 
			53.127,195.373 54.032,193.992 		"/>
		<polygon fill="#404041" points="50.68,205.729 51.773,204.064 29.395,189.367 28.301,191.029 45.974,202.639 45.067,204.018 
			27.396,192.409 26.302,194.074 43.975,205.682 43.975,205.682 45.638,206.773 45.638,206.773 48.682,208.771 49.775,207.107 
			46.731,205.109 47.638,203.73 		"/>
		<polygon fill="#404041" points="44.285,215.468 45.376,213.805 23,199.105 21.905,200.77 39.578,212.377 38.671,213.756 
			20.999,202.148 19.905,203.813 37.579,215.42 37.578,215.421 39.242,216.514 39.242,216.512 42.286,218.512 43.376,216.848 
			40.334,214.85 41.24,213.471 		"/>
		<polygon fill="#404041" points="37.888,225.206 38.98,223.544 16.603,208.846 15.507,210.509 33.18,222.115 32.274,223.494 
			14.604,211.889 13.509,213.552 31.183,225.158 31.183,225.158 32.846,226.251 32.846,226.251 35.888,228.251 36.982,226.587 
			33.938,224.588 34.843,223.207 		"/>
	</g>
	<g>
		<path fill="#404041" d="M151.07,334.216c-0.44,0.672-0.254,1.574,0.418,2.018l9.739,6.396c0.672,0.442,1.573,0.256,2.017-0.417
			L323.211,98.664c0.44-0.671,0.254-1.576-0.416-2.018l-9.739-6.396c-0.673-0.441-1.576-0.254-2.019,0.418L151.07,334.216z"/>
		<g>
			<path fill="#231F20" d="M323.235,97.104c-0.106-0.174-0.251-0.332-0.436-0.453l-0.606-0.397l-161.566,245.98l0.606,0.396
				c0.183,0.122,0.385,0.189,0.59,0.221L323.235,97.104z"/>
			
				<rect x="239.693" y="71.412" transform="matrix(-0.8366 -0.5478 0.5478 -0.8366 321.7338 533.0736)" fill="#231F20" width="1.339" height="294.291"/>
			
				<rect x="238.081" y="70.335" transform="matrix(-0.8359 -0.5489 0.5489 -0.8359 318.9457 530.3413)" fill="#231F20" width="1.335" height="294.319"/>
			
				<rect x="236.478" y="69.278" transform="matrix(-0.8356 -0.5493 0.5493 -0.8356 316.435 527.5305)" fill="#231F20" width="1.337" height="294.284"/>
			
				<rect x="234.867" y="68.241" transform="matrix(-0.8364 -0.5482 0.5482 -0.8364 314.4539 524.6418)" fill="#231F20" width="1.337" height="294.288"/>
			
				<rect x="233.245" y="67.187" transform="matrix(-0.8363 -0.5483 0.5483 -0.8363 312.0118 521.8489)" fill="#231F20" width="1.339" height="294.313"/>
			<path fill="#231F20" d="M313.054,90.25c-0.182-0.118-0.381-0.188-0.58-0.22L151.059,335.785c0.105,0.172,0.249,0.328,0.43,0.446
				l0.613,0.401l161.565-245.98L313.054,90.25z"/>
		</g>
	</g>
</g>
</svg>
