<?xml version="1.0" encoding="utf-8"?>
<!DOCTYPE svg PUBLIC "-//W3C//DTD SVG 1.1//EN" "http://www.w3.org/Graphics/SVG/1.1/DTD/svg11.dtd">
<svg version="1.1" xmlns="http://www.w3.org/2000/svg" xmlns:xlink="http://www.w3.org/1999/xlink" x="0px" y="0px"
	 width="190px" height="70px" viewBox="0 0 190 70" enable-background="new 0 0 190 70" xml:space="preserve">
<path opacity="0.05" fill-rule="evenodd" clip-rule="evenodd" fill="#FFFFFF" d="M3,0h184c1.656,0,3,1.344,3,3v64
	c0,1.656-1.344,3-3,3H3c-1.657,0-3-1.344-3-3V3C0,1.344,1.343,0,3,0z"/>
<g>
	<path fill="#FFFFFF" d="M53.883,23.614h3.43l0.503,1.355h1.931l-3.083-8H54.53l-3.082,8h1.931L53.883,23.614z M55.598,18.673
		l1.248,3.442h-2.495L55.598,18.673z"/>
	<polygon fill="#FFFFFF" points="65.773,24.97 68.855,16.97 66.924,16.97 64.706,23.111 62.487,16.97 60.556,16.97 63.638,24.97 	
		"/>
	<path fill="#FFFFFF" d="M72.099,23.614h3.43l0.503,1.355h1.931l-3.083-8h-2.135l-3.082,8h1.931L72.099,23.614z M73.813,18.673
		l1.248,3.442h-2.495L73.813,18.673z"/>
	<rect x="79.611" y="16.97" fill="#FFFFFF" width="1.703" height="8"/>
	<polygon fill="#FFFFFF" points="88.825,23.471 85.442,23.471 85.442,16.97 83.728,16.97 83.728,24.97 88.825,24.97 	"/>
	<path fill="#FFFFFF" d="M92.474,23.614h3.43l0.504,1.355h1.931l-3.083-8h-2.135l-3.082,8h1.931L92.474,23.614z M94.189,18.673
		l1.248,3.442h-2.495L94.189,18.673z"/>
	<path fill="#FFFFFF" d="M105.119,20.844c0.756-0.156,1.381-0.84,1.381-1.835c0-1.067-0.779-2.039-2.303-2.039h-4.211v8h4.342
		c1.535,0,2.326-0.959,2.326-2.171C106.654,21.803,105.984,20.976,105.119,20.844z M101.689,18.469h2.135
		c0.576,0,0.936,0.348,0.936,0.84c0,0.516-0.359,0.839-0.936,0.839h-2.135V18.469z M103.896,23.471h-2.207v-1.823h2.207
		c0.66,0,1.02,0.408,1.02,0.912C104.916,23.135,104.533,23.471,103.896,23.471z"/>
	<polygon fill="#FFFFFF" points="113.867,23.471 110.486,23.471 110.486,16.97 108.771,16.97 108.771,24.97 113.867,24.97 	"/>
	<polygon fill="#FFFFFF" points="121.584,23.471 117.627,23.471 117.627,21.647 121.5,21.647 121.5,20.148 117.627,20.148 
		117.627,18.469 121.584,18.469 121.584,16.97 115.924,16.97 115.924,24.97 121.584,24.97 	"/>
	<path fill="#FFFFFF" d="M131.605,16.838c-2.424,0-4.186,1.727-4.186,4.138s1.762,4.138,4.186,4.138c2.41,0,4.174-1.727,4.174-4.138
		S134.016,16.838,131.605,16.838z M131.605,23.603c-1.488,0-2.436-1.14-2.436-2.626c0-1.5,0.947-2.627,2.436-2.627
		c1.475,0,2.422,1.127,2.422,2.627C134.027,22.463,133.08,23.603,131.605,23.603z"/>
	<polygon fill="#FFFFFF" points="139.586,19.752 143.4,24.97 145.043,24.97 145.043,16.97 143.34,16.97 143.34,21.996 
		139.635,16.97 137.883,16.97 137.883,24.97 139.586,24.97 	"/>
	<polygon fill="#FFFFFF" points="153.361,24.97 155.076,24.97 155.076,18.469 157.404,18.469 157.404,16.97 151.023,16.97 
		151.023,18.469 153.361,18.469 	"/>
	<polygon fill="#FFFFFF" points="161.102,21.6 164.879,21.6 164.879,24.97 166.594,24.97 166.594,16.97 164.879,16.97 
		164.879,20.112 161.102,20.112 161.102,16.97 159.398,16.97 159.398,24.97 161.102,24.97 	"/>
	<polygon fill="#FFFFFF" points="174.73,23.471 170.773,23.471 170.773,21.647 174.646,21.647 174.646,20.148 170.773,20.148 
		170.773,18.469 174.73,18.469 174.73,16.97 169.07,16.97 169.07,24.97 174.73,24.97 	"/>
	<path fill="#FFFFFF" d="M55.056,31.158L48.309,52.21h3.967l1.812-5.966h6.653l1.905,5.966H66.8l-6.84-21.052H55.056z
		 M54.712,43.339l1.624-5.185c0.344-1.249,0.688-2.718,1-3.936h0.063c0.313,1.218,0.656,2.655,1.062,3.936l1.656,5.185H54.712z"/>
	<path fill="#FFFFFF" d="M77.673,36.655c-2.311,0-4.092,0.968-5.216,2.686h-0.062l-0.188-2.342h-3.374
		c0.063,1.437,0.125,3.061,0.125,5.06v16.336H72.8v-7.871h0.063c0.781,1.218,2.374,2.03,4.279,2.03c3.467,0,6.934-2.655,6.934-8.152
		C84.076,39.653,81.171,36.655,77.673,36.655z M76.299,49.586c-1.656,0-2.999-1.124-3.405-2.686
		c-0.063-0.344-0.094-0.688-0.094-1.063v-2.343c0-0.312,0.063-0.655,0.125-0.968c0.406-1.687,1.874-2.843,3.467-2.843
		c2.467,0,3.779,2.187,3.779,4.873C80.172,47.556,78.735,49.586,76.299,49.586z"/>
	<path fill="#FFFFFF" d="M95.323,36.655c-2.311,0-4.092,0.968-5.216,2.686h-0.062l-0.188-2.342h-3.374
		c0.063,1.437,0.125,3.061,0.125,5.06v16.336h3.842v-7.871h0.063c0.781,1.218,2.374,2.03,4.279,2.03
		c3.467,0,6.934-2.655,6.934-8.152C101.727,39.653,98.822,36.655,95.323,36.655z M93.949,49.586c-1.656,0-2.999-1.124-3.405-2.686
		c-0.063-0.344-0.094-0.688-0.094-1.063v-2.343c0-0.312,0.063-0.655,0.125-0.968c0.406-1.687,1.874-2.843,3.467-2.843
		c2.467,0,3.779,2.187,3.779,4.873C97.822,47.556,96.385,49.586,93.949,49.586z"/>
	<path fill="#FFFFFF" d="M117.597,39.966c-2.811-1.093-4.029-1.843-4.029-3.467c0-1.25,1.031-2.53,3.467-2.53
		c1.969,0,3.437,0.594,4.217,1l0.906-3.093c-1.094-0.562-2.749-1.062-5.029-1.062c-4.591,0-7.465,2.593-7.465,6.06
		c0,3.029,2.218,4.872,5.716,6.122c2.655,0.968,3.717,1.905,3.717,3.498c0,1.718-1.374,2.873-3.811,2.873
		c-1.968,0-3.873-0.624-5.091-1.343l-0.875,3.187c1.156,0.718,3.468,1.343,5.717,1.343c5.403,0,7.965-2.937,7.965-6.341
		C123.001,43.184,121.251,41.34,117.597,39.966z"/>
	<path fill="#FFFFFF" d="M130.094,33.094l-3.779,1.062v2.843h-2.155v2.873h2.155v7.153c0,1.999,0.374,3.404,1.218,4.278
		c0.719,0.781,1.874,1.25,3.311,1.25c1.188,0,2.218-0.188,2.78-0.406l-0.063-2.905c-0.438,0.125-0.813,0.156-1.499,0.156
		c-1.468,0-1.968-0.937-1.968-2.811v-6.716h3.654v-2.873h-3.654V33.094z"/>
	<path fill="#FFFFFF" d="M142.934,36.655c-4.592,0-7.872,3.061-7.872,8.059c0,4.903,3.343,7.84,7.622,7.84
		c3.873,0,7.809-2.499,7.809-8.09C150.492,39.841,147.462,36.655,142.934,36.655z M142.809,49.773c-2.312,0-3.78-2.218-3.78-5.153
		c0-2.53,1.094-5.186,3.812-5.186c2.623,0,3.686,2.749,3.686,5.123C146.525,47.649,144.994,49.773,142.809,49.773z"/>
	<path fill="#FFFFFF" d="M156.46,39.872h-0.094l-0.156-2.873h-3.311c0.094,1.343,0.125,2.842,0.125,4.903V52.21h3.842v-7.902
		c0-0.406,0.031-0.813,0.094-1.155c0.344-1.75,1.624-2.905,3.436-2.905c0.469,0,0.813,0.031,1.156,0.094v-3.592
		c-0.313-0.063-0.531-0.094-0.906-0.094C158.99,36.655,157.21,37.748,156.46,39.872z"/>
	<path fill="#FFFFFF" d="M176.546,44.058c0-3.342-1.624-7.402-6.559-7.402c-4.873,0-7.435,3.967-7.435,8.184
		c0,4.653,2.905,7.684,7.841,7.684c2.186,0,3.998-0.406,5.31-0.969l-0.563-2.623c-1.187,0.405-2.437,0.687-4.217,0.687
		c-2.468,0-4.591-1.187-4.685-3.936h10.183C176.483,45.338,176.546,44.776,176.546,44.058z M166.239,42.996
		c0.156-1.563,1.155-3.718,3.529-3.718c2.562,0,3.186,2.312,3.154,3.718H166.239z"/>
</g>
<path fill-rule="evenodd" clip-rule="evenodd" fill="#FFFFFF" d="M34.567,12.003H17.59c-2.761,0-5,2.238-5,5v35.994
	c0,2.762,2.239,5,5,5h16.977c2.761,0,5-2.238,5-5V17.003C39.567,14.241,37.328,12.003,34.567,12.003z M24.14,14.759h3
	c0.552,0,1,0.447,1,1s-0.448,1-1,1h-3c-0.552,0-1-0.447-1-1S23.587,14.759,24.14,14.759z M26.069,56.886
	c-1.442,0-2.61-1.169-2.61-2.61s1.168-2.61,2.61-2.61s2.61,1.169,2.61,2.61S27.511,56.886,26.069,56.886z M36.35,50.199H15.758
	v-30.72H36.35V50.199z"/>
</svg>
