<?xml version="1.0" encoding="utf-8"?>
<!DOCTYPE svg PUBLIC "-//W3C//DTD SVG 1.1//EN" "http://www.w3.org/Graphics/SVG/1.1/DTD/svg11.dtd">
<svg version="1.1" xmlns="http://www.w3.org/2000/svg" xmlns:xlink="http://www.w3.org/1999/xlink" viewBox="0 0 24 24" enable-background="new 0 0 24 24" xml:space="preserve">
  <path fill="#D73E4D" d="M23.3,23.3c-0.6,0.6-1.5,0.6-2.1,0L0.7,2.8c-0.6-0.6-0.6-1.5,0-2.1c0.6-0.6,1.5-0.6,2.1,0
  l20.5,20.5C23.9,21.8,23.9,22.7,23.3,23.3L23.3,23.3z M23.3,2.8L2.8,23.3c-0.6,0.6-1.5,0.6-2.1,0c-0.6-0.6-0.6-1.5,0-2.1L21.2,0.7
  c0.6-0.6,1.5-0.6,2.1,0C23.9,1.3,23.9,2.2,23.3,2.8L23.3,2.8z"/>
</svg>
