<?xml version="1.0" encoding="utf-8"?>
<!DOCTYPE svg PUBLIC "-//W3C//DTD SVG 1.1//EN" "http://www.w3.org/Graphics/SVG/1.1/DTD/svg11.dtd">
<svg version="1.1" xmlns="http://www.w3.org/2000/svg" xmlns:xlink="http://www.w3.org/1999/xlink" x="0px" y="0px"
viewBox="0 0 36 48" enable-background="new 0 0 36 48" width="36" height="48" xml:space="preserve">
	<path fill-rule="evenodd" clip-rule="evenodd" fill="#385BA3" d="M20.4,46.8c0,0-1.1,1.2-2.4,1.2c0,0-0.1,0-0.1,0
	c-1.3,0-2.4-1.2-2.4-1.2C9,39.2,0,28.5,0,18C0,8,8.1,0,18,0s18,8,18,18C36,28.5,27,39.2,20.4,46.8L20.4,46.8z M18,12
	c-3.3,0-6,2.7-6,6c0,3.3,2.7,6,6,6c3.3,0,6-2.7,6-6C24,14.7,21.3,12,18,12L18,12z"/>
</svg>
