<?xml version="1.0" encoding="utf-8"?>
<!DOCTYPE svg PUBLIC "-//W3C//DTD SVG 1.1//EN" "http://www.w3.org/Graphics/SVG/1.1/DTD/svg11.dtd">
<svg version="1.1" xmlns="http://www.w3.org/2000/svg" xmlns:xlink="http://www.w3.org/1999/xlink" viewBox="0 0 14 24" enable-background="new 0 0 14 24" xml:space="preserve">
  <path fill="#FFF7CC" d="M0.9,0.5c0.6-0.6,1.7-0.6,2.3,0l10.3,10.3c0.6,0.6,0.6,1.7,0,2.3c-0.6,0.6-1.7,0.6-2.3,0L0.9,2.8
  C0.3,2.1,0.3,1.1,0.9,0.5L0.9,0.5z M0.9,23.5c-0.6-0.6-0.6-1.7,0-2.3l10.3-10.3c0.6-0.6,1.7-0.6,2.3,0c0.6,0.6,0.6,1.7,0,2.3
  L3.2,23.5C2.6,24.2,1.5,24.2,0.9,23.5L0.9,23.5z"/>
</svg>
