<?xml version="1.0" encoding="utf-8"?>
<!DOCTYPE svg PUBLIC "-//W3C//DTD SVG 1.1//EN" "http://www.w3.org/Graphics/SVG/1.1/DTD/svg11.dtd">
<svg version="1.1" xmlns="http://www.w3.org/2000/svg" xmlns:xlink="http://www.w3.org/1999/xlink" x="0px" y="0px"
	 width="190px" height="70px" viewBox="0 0 190 70" enable-background="new 0 0 190 70" xml:space="preserve">
<path opacity="0.05" fill-rule="evenodd" clip-rule="evenodd" fill="#FFFFFF" d="M3-0.02h184c1.657,0,3,1.343,3,3v64
	c0,1.657-1.343,3.001-3,3.001H3c-1.657,0-3-1.344-3-3.001v-64C0,1.323,1.343-0.02,3-0.02z"/>
<g id="PLAY">
	<defs>
		<path id="SVGID_1_" d="M39.413,32.264l-8.535-4.928c0,0-15.549-8.978-16.463-9.505c-0.914-0.528-1.825-0.208-1.825,0.895
			c0,1.837,0,19.169,0,19.169s0,18.73,0,19.558s0.651,1.185,1.445,0.725c0.794-0.458,16.843-9.725,16.843-9.725l8.534-4.927
			c0,0,7.242-4.182,8.204-4.736c0.962-0.556,0.87-1.318,0.058-1.756C46.862,36.596,39.413,32.264,39.413,32.264z"/>
	</defs>
	<clipPath id="SVGID_2_">
		<use xlink:href="#SVGID_1_"  overflow="visible"/>
	</clipPath>
	<linearGradient id="SVGID_3_" gradientUnits="userSpaceOnUse" x1="23.1616" y1="16.9297" x2="23.1616" y2="58.8599">
		<stop  offset="0" style="stop-color:#207CB0"/>
		<stop  offset="0.3757" style="stop-color:#3CB2BF"/>
		<stop  offset="0.7961" style="stop-color:#58E9CE"/>
		<stop  offset="1" style="stop-color:#63FFD4"/>
	</linearGradient>
	<polygon clip-path="url(#SVGID_2_)" fill="url(#SVGID_3_)" points="12.59,16.93 12.59,37.895 12.59,58.859 33.733,37.895 	"/>
	<linearGradient id="SVGID_4_" gradientUnits="userSpaceOnUse" x1="12.5903" y1="27.3359" x2="39.4126" y2="27.3359">
		<stop  offset="0" style="stop-color:#4BC3AE"/>
		<stop  offset="1" style="stop-color:#DEE999"/>
	</linearGradient>
	<polygon clip-path="url(#SVGID_2_)" fill="url(#SVGID_4_)" points="39.413,32.264 30.878,27.336 12.59,16.777 12.59,16.93 
		33.733,37.895 	"/>
	<linearGradient id="SVGID_5_" gradientUnits="userSpaceOnUse" x1="26.0015" y1="37.8945" x2="26.0015" y2="59.0117">
		<stop  offset="0" style="stop-color:#EC403D"/>
		<stop  offset="0.384" style="stop-color:#C93B75"/>
		<stop  offset="0.7988" style="stop-color:#A636AC"/>
		<stop  offset="1" style="stop-color:#9934C2"/>
	</linearGradient>
	<polygon clip-path="url(#SVGID_2_)" fill="url(#SVGID_5_)" points="12.59,58.859 12.59,59.012 30.878,48.452 39.412,43.525 
		33.733,37.895 	"/>
	<linearGradient id="SVGID_6_" gradientUnits="userSpaceOnUse" x1="41.4497" y1="32.2637" x2="41.4497" y2="43.5259">
		<stop  offset="0" style="stop-color:#FF8877"/>
		<stop  offset="0.6121" style="stop-color:#FFB175"/>
		<stop  offset="1" style="stop-color:#FFC774"/>
	</linearGradient>
	<polygon clip-path="url(#SVGID_2_)" fill="url(#SVGID_6_)" points="39.413,32.264 33.733,37.895 39.412,43.525 49.166,37.895 	"/>
</g>
<g>
	<path fill="#FFFFFF" d="M145.701,33.452c-0.816,0-1.539,0.149-2.17,0.445c-0.63,0.297-1.183,0.779-1.658,1.446h-0.089l-0.255-1.669
		h-1.502v17.667h1.846v-5.018c0-0.637-0.045-1.313-0.133-2.023h0.133c0.445,0.606,0.996,1.058,1.652,1.35
		c0.656,0.293,1.381,0.439,2.176,0.439c1.588,0,2.828-0.554,3.723-1.662c0.893-1.109,1.34-2.664,1.34-4.667
		c0-1.995-0.44-3.546-1.318-4.651C148.566,34.004,147.318,33.452,145.701,33.452z M147.955,43.266
		c-0.598,0.852-1.424,1.279-2.477,1.279c-1.261,0-2.177-0.369-2.748-1.107s-0.857-1.964-0.857-3.677v-0.412
		c0.016-1.505,0.301-2.604,0.857-3.294c0.557-0.689,1.457-1.034,2.703-1.034c1.084,0,1.924,0.406,2.521,1.219
		c0.596,0.812,0.895,1.978,0.895,3.499C148.85,41.236,148.551,42.412,147.955,43.266z"/>
	<rect x="153.192" y="28.556" fill="#FFFFFF" width="1.847" height="17.311"/>
	<path fill="#FFFFFF" d="M162.742,33.474c-0.72,0-1.438,0.093-2.152,0.278c-0.717,0.186-1.374,0.441-1.976,0.768l0.567,1.414
		c1.283-0.624,2.434-0.935,3.449-0.935c0.904,0,1.563,0.228,1.975,0.684c0.412,0.456,0.618,1.163,0.618,2.12v0.756l-2.069,0.066
		c-3.938,0.119-5.908,1.41-5.908,3.872c0,1.149,0.344,2.036,1.029,2.659s1.634,0.934,2.842,0.934c0.905,0,1.66-0.135,2.265-0.406
		c0.604-0.27,1.211-0.786,1.819-1.551h0.089l0.367,1.734h1.368v-8.32c0-1.425-0.35-2.459-1.051-3.105
		C165.273,33.797,164.195,33.474,162.742,33.474z M165.18,40.973c0,1.135-0.329,2.018-0.985,2.648
		c-0.657,0.631-1.56,0.946-2.709,0.946c-0.728,0-1.292-0.175-1.696-0.524c-0.405-0.348-0.607-0.855-0.607-1.523
		c0-0.853,0.324-1.48,0.974-1.886s1.708-0.632,3.177-0.685l1.848-0.078V40.973z"/>
	<path fill="#FFFFFF" d="M177.555,33.674c-1.705,4.717-2.713,7.534-3.021,8.449c-0.307,0.918-0.509,1.564-0.605,1.943h-0.089
		c-0.142-0.705-0.505-1.851-1.091-3.438l-2.67-6.954h-1.98l4.918,12.261l-0.68,1.735c-0.541,1.425-1.445,2.136-2.714,2.136
		c-0.505,0-0.962-0.044-1.369-0.133v1.48c0.55,0.125,1.105,0.188,1.67,0.188c1.008,0,1.858-0.287,2.552-0.861
		c0.695-0.576,1.301-1.549,1.82-2.922l5.24-13.884H177.555z"/>
	<path fill="#FFFFFF" d="M114.701,33.889h-5.253c-1.378,0-3.112,0.205-4.567,1.403c-1.095,0.943-1.631,2.245-1.631,3.417
		c0,1.988,1.53,4.004,4.232,4.004c0.256,0,0.535-0.026,0.817-0.052c-0.128,0.307-0.255,0.563-0.255,0.996
		c0,0.79,0.406,1.273,0.766,1.732c-1.147,0.078-3.291,0.205-4.871,1.174c-1.508,0.895-1.965,2.193-1.965,3.112
		c0,1.888,1.785,3.647,5.484,3.647c4.385,0,6.707-2.423,6.707-4.819c0-1.761-1.02-2.628-2.142-3.573l-0.919-0.712
		c-0.281-0.229-0.664-0.537-0.664-1.097c0-0.562,0.383-0.92,0.715-1.25c1.071-0.842,2.143-1.736,2.143-3.622
		c0-1.938-1.225-2.958-1.811-3.443h1.58L114.701,33.889z M112.458,49.498c0,1.581-1.302,2.757-3.749,2.757
		c-2.729,0-4.49-1.304-4.49-3.112c0-1.813,1.633-2.425,2.193-2.627c1.07-0.357,2.449-0.41,2.68-0.41c0.253,0,0.381,0,0.586,0.026
		C111.615,47.51,112.458,48.196,112.458,49.498z M110.417,41.285C110.008,41.694,109.32,42,108.684,42
		c-2.195,0-3.189-2.83-3.189-4.539c0-0.664,0.128-1.352,0.561-1.889c0.408-0.51,1.122-0.841,1.786-0.841
		c2.116,0,3.212,2.857,3.212,4.693C111.053,39.883,111.003,40.698,110.417,41.285z"/>
	<path fill="#FFFFFF" d="M95.814,33.527c-3.872,0-6.596,2.85-6.596,6.186c0,2.854,2.165,6.012,6.213,6.012
		c4.151,0,6.468-3.185,6.468-6.188C101.899,36.455,99.557,33.527,95.814,33.527z M98.614,43.661
		c-0.585,0.813-1.604,1.298-2.597,1.298c-3.082,0-4.329-4.15-4.329-6.669c0-1.097,0.179-2.218,1.172-3.107
		c0.611-0.535,1.451-0.867,2.291-0.867c3.158,0,4.227,4.278,4.227,6.518C99.379,41.828,99.227,42.846,98.614,43.661z"/>
	<path fill="#FFFFFF" d="M82.012,33.527c-3.871,0-6.596,2.85-6.596,6.186c0,2.854,2.165,6.012,6.213,6.012
		c4.151,0,6.468-3.185,6.468-6.188C88.098,36.455,85.755,33.527,82.012,33.527z M84.813,43.661
		c-0.585,0.813-1.603,1.298-2.596,1.298c-3.083,0-4.33-4.15-4.33-6.669c0-1.097,0.178-2.218,1.171-3.107
		c0.611-0.535,1.452-0.867,2.292-0.867c3.158,0,4.228,4.278,4.228,6.518C85.578,41.828,85.424,42.846,84.813,43.661z"/>
	<path fill="#FFFFFF" d="M66.968,41.023l3.865-0.205v4.122c-0.769,0.308-1.611,0.64-3.251,0.64c-5.58,0-9.062-4.531-9.062-9.343
		c0-4.48,3.046-7.553,7.092-7.553c3.02,0,4.608,1.561,5.479,2.405l-0.64,1.025l0.896-0.204l2.125-2.022
		c-0.563-0.385-1.459-1.05-3.379-1.587c-1.203-0.333-2.533-0.537-3.916-0.537c-6.529,0-10.343,4.607-10.343,9.573
		c0,4.071,2.688,9.269,9.754,9.269c1.407,0,2.738-0.204,4.224-0.435l3.661-0.845v-3.126c0-0.255,0.024-0.997,0.051-1.229
		c0.051-0.203,0.076-0.256,0.256-0.409l0.665-0.64h-5.428L66.968,41.023z"/>
	<path fill="#FFFFFF" d="M118.559,43.358v-0.281V28.869c0.004-0.055,0.008-0.112,0.014-0.165c0.103-0.896,0.358-1.049,1.152-1.511
		h-3.662l-1.92,0.921h1.957v0.012l-0.002-0.009v14.96v0.845c0,0.512-0.102,0.59-0.69,1.355h4.532l0.947-0.561
		c-0.436-0.053-0.871-0.078-1.307-0.129C118.734,44.512,118.559,44.357,118.559,43.358z"/>
	<path fill="#FFFFFF" d="M123.006,39.332l1.959-0.152l5.973-2.417c-0.177-0.585-0.508-1.678-1.777-2.516
		c-0.764-0.484-1.705-0.712-2.62-0.712c-2.618,0-5.822,1.932-5.822,5.873c0,1.906,0.788,4.092,2.593,5.364
		c1.297,0.938,2.568,0.992,3.381,0.992c0.764,0,1.628-0.103,2.469-0.483c0.278-0.127,0.559-0.305,0.837-0.459l1.349-1.27
		c-0.865,0.43-1.807,0.889-3.102,0.889C125.827,44.441,123.641,42.561,123.006,39.332z M122.904,37.907
		c0-2.746,1.905-3.534,2.923-3.534c1.374,0,2.518,1.17,2.518,2.188c0,0.355-0.255,0.508-0.737,0.686l-4.627,2.01
		C122.955,38.797,122.904,38.34,122.904,37.907z"/>
	<polygon fill="#FFFFFF" points="131.692,33.709 132.248,33.709 132.248,35.386 132.451,35.386 132.451,33.709 133.006,33.709 
		133.006,33.535 131.692,33.535 	"/>
	<polygon fill="#FFFFFF" points="134.135,35.031 134.129,35.031 133.657,33.535 133.34,33.535 133.34,35.386 133.525,35.386 
		133.525,33.693 133.531,33.693 134.053,35.386 134.212,35.386 134.729,33.693 134.738,33.693 134.738,35.386 134.922,35.386 
		134.922,33.535 134.6,33.535 	"/>
	<path fill="#FFFFFF" d="M59.51,18.726c1.439,0,2.579-0.588,3.395-1.5v-3.07H59.09v1.487h2.111v0.959
		c-0.324,0.3-0.983,0.612-1.691,0.612c-1.463,0-2.519-1.115-2.519-2.626s1.056-2.627,2.519-2.627c0.84,0,1.523,0.48,1.895,1.043
		l1.403-0.768c-0.6-0.947-1.643-1.787-3.298-1.787c-2.351,0-4.27,1.607-4.27,4.138C55.24,17.107,57.159,18.726,59.51,18.726z"/>
	<polygon fill="#FFFFFF" points="70.225,17.083 66.267,17.083 66.267,15.26 70.141,15.26 70.141,13.761 66.267,13.761 
		66.267,12.082 70.225,12.082 70.225,10.583 64.564,10.583 64.564,18.582 70.225,18.582 	"/>
	<polygon fill="#FFFFFF" points="73.707,18.582 75.422,18.582 75.422,12.082 77.749,12.082 77.749,10.583 71.368,10.583 
		71.368,12.082 73.707,12.082 	"/>
	<rect x="82.527" y="10.583" fill="#FFFFFF" width="1.703" height="8"/>
	<polygon fill="#FFFFFF" points="87.962,18.582 89.677,18.582 89.677,12.082 92.004,12.082 92.004,10.583 85.624,10.583 
		85.624,12.082 87.962,12.082 	"/>
	<path fill="#FFFFFF" d="M100.585,18.726c2.411,0,4.174-1.727,4.174-4.138s-1.763-4.138-4.174-4.138
		c-2.423,0-4.186,1.727-4.186,4.138S98.162,18.726,100.585,18.726z M100.585,11.961c1.476,0,2.423,1.127,2.423,2.627
		c0,1.487-0.947,2.626-2.423,2.626c-1.487,0-2.435-1.14-2.435-2.626C98.15,13.089,99.098,11.961,100.585,11.961z"/>
	<polygon fill="#FFFFFF" points="107.967,13.365 111.78,18.582 113.424,18.582 113.424,10.583 111.721,10.583 111.721,15.608 
		108.014,10.583 106.264,10.583 106.264,18.582 107.967,18.582 	"/>
</g>
</svg>
