<?xml version="1.0" encoding="utf-8"?>
<!DOCTYPE svg PUBLIC "-//W3C//DTD SVG 1.1//EN" "http://www.w3.org/Graphics/SVG/1.1/DTD/svg11.dtd">
<svg version="1.1" xmlns="http://www.w3.org/2000/svg" xmlns:xlink="http://www.w3.org/1999/xlink" viewBox="0 0 14 24" enable-background="new 0 0 14 24" xml:space="preserve">
  <path fill="#FFF7CC" d="M13.1,23.5c-0.6,0.6-1.7,0.6-2.3,0L0.5,13.2c-0.6-0.6-0.6-1.7,0-2.3c0.6-0.6,1.7-0.6,2.3,0l10.3,10.3
  C13.7,21.9,13.7,22.9,13.1,23.5L13.1,23.5z M13.1,0.5c0.6,0.6,0.6,1.7,0,2.3L2.8,13.1c-0.6,0.6-1.7,0.6-2.3,0
  c-0.6-0.6-0.6-1.7,0-2.3L10.8,0.5C11.4-0.2,12.5-0.2,13.1,0.5L13.1,0.5z"/>
</svg>
