<?xml version="1.0" encoding="utf-8"?>
<!DOCTYPE svg PUBLIC "-//W3C//DTD SVG 1.1//EN" "http://www.w3.org/Graphics/SVG/1.1/DTD/svg11.dtd">
<svg version="1.1" xmlns="http://www.w3.org/2000/svg" xmlns:xlink="http://www.w3.org/1999/xlink" width="16" height="16"
viewBox="0 0 16 16" enable-background="new 0 0 16 16" xml:space="preserve">
  <path fill-rule="evenodd" clip-rule="evenodd" fill="#AAC0D0" d="M15.6,14.6c0.2,0.2,0.2,0.5,0,0.7l-0.3,0.3
  c-0.2,0.2-0.5,0.2-0.7,0l-3.7-3.7c0,0,0-0.1-0.1-0.1c-1.1,0.9-2.5,1.5-4.1,1.5c-3.6,0-6.5-2.9-6.5-6.5s2.9-6.5,6.5-6.5
  c3.6,0,6.5,2.9,6.5,6.5c0,1.6-0.6,3-1.5,4.1c0,0,0.1,0,0.1,0.1L15.6,14.6L15.6,14.6z M12.2,6.8c0-3-2.5-5.5-5.5-5.5
  c-3,0-5.5,2.5-5.5,5.5c0,3,2.5,5.5,5.5,5.5C9.8,12.2,12.2,9.8,12.2,6.8L12.2,6.8z"/>
</svg>
